<svg width="85" height="85" viewBox="0 0 85 85" fill="none" xmlns="http://www.w3.org/2000/svg">
<mask id="mask0_663_15779" style="mask-type:luminance" maskUnits="userSpaceOnUse" x="0" y="0" width="85" height="85">
<path d="M85 0H0V85H85V0Z" fill="white"/>
</mask>
<g mask="url(#mask0_663_15779)">
<path d="M72.47 26.07H2.15997C0.969973 26.07 0 25.11 0 23.91V13.87C0 8.99002 3.96998 5.02002 8.84998 5.02002H65.77C70.65 5.02002 74.62 8.99002 74.62 13.87V23.91C74.62 25.1 73.65 26.07 72.46 26.07H72.47ZM4.31998 21.76H70.32V13.87C70.32 11.37 68.28 9.33002 65.78 9.33002H8.85999C6.35999 9.33002 4.31998 11.37 4.31998 13.87V21.76Z" fill="#F39800"/>
<path d="M16.22 14.36C15.03 14.36 14.0601 13.4 14.0601 12.2V2.16C14.0701 0.97 15.03 0 16.22 0C17.41 0 18.38 0.96 18.38 2.16V12.2C18.38 13.39 17.41 14.36 16.22 14.36Z" fill="#F39800"/>
<path d="M58.41 14.36C57.22 14.36 56.25 13.4 56.25 12.2V2.16C56.25 0.97 57.22 0 58.41 0C59.6 0 60.57 0.96 60.57 2.16V12.2C60.57 13.39 59.6 14.36 58.41 14.36Z" fill="#F39800"/>
<path d="M44.3499 14.36C43.1599 14.36 42.1899 13.4 42.1899 12.2V2.16C42.1899 0.97 43.1599 0 44.3499 0C45.5399 0 46.5099 0.96 46.5099 2.16V12.2C46.5099 13.39 45.5399 14.36 44.3499 14.36Z" fill="#F39800"/>
<path d="M30.2801 14.36C29.0901 14.36 28.1201 13.4 28.1201 12.2V2.16C28.1301 0.97 29.0901 0 30.2801 0C31.4701 0 32.4401 0.96 32.4401 2.16V12.2C32.4401 13.39 31.4701 14.36 30.2801 14.36Z" fill="#F39800"/>
<path d="M46.8598 37.37H42.6698C41.4798 37.37 40.5098 36.41 40.5098 35.21C40.5098 34.01 41.4798 33.05 42.6698 33.05H46.8598C48.0498 33.05 49.0198 34.01 49.0198 35.21C49.0198 36.41 48.0498 37.37 46.8598 37.37Z" fill="#F39800"/>
<path d="M31.9599 37.37H27.7699C26.5799 37.37 25.6099 36.41 25.6099 35.21C25.6099 34.01 26.5799 33.05 27.7699 33.05H31.9599C33.1499 33.05 34.1199 34.01 34.1199 35.21C34.1199 36.41 33.1499 37.37 31.9599 37.37Z" fill="#F39800"/>
<path d="M61.7602 37.37H57.5702C56.3802 37.37 55.4102 36.41 55.4102 35.21C55.4102 34.01 56.3802 33.05 57.5702 33.05H61.7602C62.9502 33.05 63.9202 34.01 63.9202 35.21C63.9202 36.41 62.9502 37.37 61.7602 37.37Z" fill="#F39800"/>
<path d="M17.06 48.67H12.87C11.68 48.67 10.71 47.71 10.71 46.51C10.71 45.31 11.68 44.35 12.87 44.35H17.06C18.25 44.35 19.2199 45.31 19.2199 46.51C19.2199 47.71 18.25 48.67 17.06 48.67Z" fill="#F39800"/>
<path d="M31.9599 48.67H27.7699C26.5799 48.67 25.6099 47.71 25.6099 46.51C25.6099 45.31 26.5799 44.35 27.7699 44.35H31.9599C33.1499 44.35 34.1199 45.31 34.1199 46.51C34.1199 47.71 33.1499 48.67 31.9599 48.67Z" fill="#F39800"/>
<path d="M46.8598 48.67H42.6698C41.4798 48.67 40.5098 47.71 40.5098 46.51C40.5098 45.31 41.4798 44.35 42.6698 44.35H46.8598C48.0498 44.35 49.0198 45.31 49.0198 46.51C49.0198 47.71 48.0498 48.67 46.8598 48.67Z" fill="#F39800"/>
<path d="M17.06 59.97H12.87C11.68 59.97 10.71 59.01 10.71 57.81C10.71 56.61 11.68 55.65 12.87 55.65H17.06C18.25 55.65 19.2199 56.61 19.2199 57.81C19.2199 59.01 18.25 59.97 17.06 59.97Z" fill="#F39800"/>
<path d="M31.9599 59.97H27.7699C26.5799 59.97 25.6099 59.01 25.6099 57.81C25.6099 56.61 26.5799 55.65 27.7699 55.65H31.9599C33.1499 55.65 34.1199 56.61 34.1199 57.81C34.1199 59.01 33.1499 59.97 31.9599 59.97Z" fill="#F39800"/>
<path d="M64.4299 85C53.0899 85 43.8599 75.77 43.8599 64.43C43.8599 53.09 53.0899 43.86 64.4299 43.86C75.7699 43.86 84.9999 53.09 84.9999 64.43C84.9999 75.77 75.7699 85 64.4299 85ZM64.4299 48.17C55.4599 48.17 48.1699 55.46 48.1699 64.43C48.1699 73.4 55.4599 80.69 64.4299 80.69C73.3999 80.69 80.6898 73.4 80.6898 64.43C80.6898 55.46 73.3999 48.17 64.4299 48.17Z" fill="#F39800"/>
<path d="M72.8 66.59H64.43C63.24 66.59 62.27 65.63 62.27 64.43V56.06C62.27 54.87 63.24 53.9 64.43 53.9C65.62 53.9 66.59 54.86 66.59 56.06V62.27H72.8C73.99 62.27 74.96 63.23 74.96 64.43C74.96 65.63 73.99 66.59 72.8 66.59Z" fill="#F39800"/>
<path d="M46.62 71.27H7.17999C3.21999 71.27 0 68.05 0 64.09V23.92C0 22.73 0.969973 21.76 2.15997 21.76H72.47C73.66 21.76 74.63 22.72 74.63 23.92V47.86C74.63 49.05 73.66 50.02 72.47 50.02C71.28 50.02 70.31 49.06 70.31 47.86V26.08H4.31V64.1C4.31 65.68 5.59999 66.97 7.17999 66.97H46.62C47.81 66.97 48.78 67.93 48.78 69.13C48.78 70.33 47.81 71.29 46.62 71.29V71.27Z" fill="#F39800"/>
</g>
</svg>
