<svg width="76" height="56" viewBox="0 0 76 56" fill="none" xmlns="http://www.w3.org/2000/svg">
<path d="M61.2235 35.9283V39.9996C61.2235 40.8811 60.7511 41.6944 59.9914 42.1376L38.8898 54.3223C38.1252 54.7654 37.1853 54.7654 36.4207 54.3223L15.319 42.1376C14.5544 41.6944 14.0869 40.8811 14.0869 39.9996V15.6302C14.0869 14.7488 14.5593 13.9355 15.319 13.4923L28.9307 5.63214L32.6221 3.49909L36.4207 1.3076C37.1853 0.864428 38.1252 0.864428 38.8898 1.3076L59.9914 13.4923C60.756 13.9355 61.2235 14.7488 61.2235 15.6302V35.9283Z" fill="white"/>
<path d="M37.6482 55.6226C37.0541 55.6226 36.46 55.4716 35.9291 55.1648L14.8275 42.9801C13.7658 42.3665 13.1084 41.2269 13.1084 39.9996V15.6302C13.1084 14.403 13.7658 13.2634 14.8275 12.6498L35.9291 0.460214C36.9908 -0.153405 38.3106 -0.153405 39.3722 0.460214L60.4739 12.6449C61.5355 13.2585 62.193 14.3981 62.193 15.6254V39.9948C62.193 41.222 61.5355 42.3616 60.4739 42.9752L39.3722 55.1599C38.8414 55.4667 38.2473 55.6177 37.6531 55.6177L37.6482 55.6226ZM37.6482 1.95043C37.3901 1.95043 37.132 2.01861 36.9031 2.1501L15.8015 14.3348C15.3388 14.6027 15.0564 15.0945 15.0564 15.6302V39.9996C15.0564 40.5305 15.3437 41.0272 15.8015 41.2951L36.9031 53.4798C37.3658 53.7476 37.9356 53.7476 38.3982 53.4798L59.4999 41.2951C59.9625 41.0272 60.245 40.5353 60.245 39.9996V15.6302C60.245 15.0994 59.9576 14.6027 59.4999 14.3348L38.3982 2.1501C38.1693 2.01861 37.9112 1.95043 37.6531 1.95043H37.6482Z" fill="#007869"/>
<path d="M56.0904 19.6967V18.148C56.0904 17.5393 55.7641 16.9792 55.2381 16.6773L38.5 7.01521C37.974 6.71327 37.3263 6.71327 36.8004 7.01521L20.0622 16.6773C19.5363 16.9792 19.21 17.5441 19.21 18.148V35.9283V37.477C19.21 38.0857 19.5363 38.6458 20.0622 38.9477L36.8004 48.6098C37.3263 48.9117 37.974 48.9117 38.5 48.6098L48.3033 42.9509L51.9947 40.8178L55.2381 38.9428C55.7641 38.6409 56.0904 38.076 56.0904 37.4721V19.6918V19.6967Z" fill="#007869"/>
<path d="M8.02771 28.4578H2.46619C1.49219 28.4578 0.84448 29.461 1.24382 30.3473L3.03597 34.3505C3.19181 34.6962 3.19181 35.0956 3.03597 35.4462L1.24382 39.4494C0.84935 40.3357 1.49706 41.3389 2.46619 41.3389H7.89624H12.7321C13.4724 41.3389 14.0714 40.7399 14.0714 39.9997V35.9284" fill="white"/>
<path d="M12.7376 42.3129H2.46679C1.67785 42.3129 0.95223 41.9184 0.523671 41.2561C0.0951124 40.5938 0.0318145 39.7708 0.353234 39.05L2.14538 35.0469C2.18921 34.9543 2.18921 34.8423 2.14538 34.7449L0.353234 30.7418C0.0318145 30.021 0.0951124 29.198 0.523671 28.5357C0.95223 27.8734 1.67785 27.4789 2.46679 27.4789H8.02831C8.56401 27.4789 9.00231 27.9172 9.00231 28.4529C9.00231 28.9886 8.56401 29.4269 8.02831 29.4269H2.46679C2.29147 29.4269 2.19894 29.534 2.15998 29.5925C2.12102 29.6558 2.06258 29.7824 2.13076 29.9431L3.92291 33.9463C4.19076 34.5453 4.19076 35.2368 3.92291 35.8358L2.13076 39.8389C2.05771 39.9997 2.11615 40.1263 2.15998 40.1896C2.19894 40.2529 2.29634 40.3552 2.46679 40.3552H12.7376C12.9421 40.3552 13.1029 40.1896 13.1029 39.9899V35.9186C13.1029 35.3829 13.5412 34.9446 14.0769 34.9446C14.6126 34.9446 15.0508 35.3829 15.0508 35.9186V39.9899C15.0508 41.2658 14.0135 42.3032 12.7376 42.3032V42.3129Z" fill="#007869"/>
<path d="M61.2236 35.9284V39.9997C61.2236 40.7399 61.8226 41.3389 62.5629 41.3389H72.8337C73.8028 41.3389 74.4554 40.3357 74.056 39.4494L72.2639 35.4462C72.108 35.1005 72.108 34.7011 72.2639 34.3505L74.056 30.3473C74.4505 29.461 73.8028 28.4578 72.8337 28.4578H67.2721" fill="white"/>
<path d="M72.834 42.3129H62.5632C61.2873 42.3129 60.25 41.2756 60.25 39.9996V35.9283C60.25 35.3926 60.6883 34.9543 61.224 34.9543C61.7597 34.9543 62.198 35.3926 62.198 35.9283V39.9996C62.198 40.2042 62.3636 40.3649 62.5632 40.3649H72.834C73.0093 40.3649 73.1019 40.2578 73.1408 40.1993C73.1798 40.136 73.2382 40.0094 73.1652 39.8487L71.373 35.8455C71.1052 35.2465 71.1052 34.555 71.373 33.956L73.1652 29.9529C73.2382 29.7922 73.1798 29.6655 73.1408 29.6022C73.1019 29.5389 73.0045 29.4366 72.834 29.4366H67.2725C66.7368 29.4366 66.2985 28.9983 66.2985 28.4626C66.2985 27.9269 66.7368 27.4886 67.2725 27.4886H72.834C73.623 27.4886 74.3486 27.8831 74.7771 28.5454C75.2057 29.2078 75.269 30.0308 74.9476 30.7515L73.1555 34.7547C73.1116 34.8521 73.1116 34.9592 73.1555 35.0566L74.9476 39.0597C75.269 39.7805 75.2057 40.6035 74.7771 41.261C74.3486 41.9233 73.623 42.3178 72.834 42.3178V42.3129Z" fill="#007869"/>
<path d="M65.8438 35.9283H9.45428C8.66534 35.9283 8.02734 35.2903 8.02734 34.5014V21.1187C8.02734 20.3297 8.66534 19.6918 9.45428 19.6918H65.8438C66.6328 19.6918 67.2707 20.3297 67.2707 21.1187V34.5014C67.2707 35.2903 66.6328 35.9283 65.8438 35.9283Z" fill="white"/>
<path d="M65.8442 36.9023H9.45465C8.13001 36.9023 7.05859 35.826 7.05859 34.5014V21.1187C7.05859 19.794 8.13488 18.7178 9.45465 18.7178H65.8442C67.1689 18.7178 68.2451 19.794 68.2451 21.1187V34.5014C68.2451 35.826 67.1689 36.9023 65.8442 36.9023ZM9.45465 20.6706C9.20628 20.6706 9.00659 20.8752 9.00659 21.1235V34.5063C9.00659 34.7546 9.21115 34.9592 9.45465 34.9592H65.8442C66.0926 34.9592 66.2971 34.7546 66.2971 34.5063V21.1284C66.2971 20.88 66.0926 20.6755 65.8442 20.6755H9.45465V20.6706Z" fill="#007869"/>
<path d="M16.6822 24.9611V26.1689H15.1043V31.0096H13.6482V26.1689H12.0703V24.9611H16.6822Z" fill="#007869"/>
<path d="M19.6383 31.1022C18.2601 31.1022 17.252 30.2694 17.252 28.4627V27.5179C17.252 25.6916 18.2601 24.8784 19.6383 24.8784C21.0165 24.8784 22.0246 25.6916 22.0246 27.5179V28.4627C22.0246 30.2694 21.0165 31.1022 19.6383 31.1022ZM18.7081 28.4627C18.7081 29.4513 19.0344 29.8944 19.6383 29.8944C20.2421 29.8944 20.5684 29.4561 20.5684 28.4627V27.5179C20.5684 26.5293 20.2421 26.0861 19.6383 26.0861C19.0344 26.0861 18.7081 26.5244 18.7081 27.5179V28.4627Z" fill="#007869"/>
<path d="M26.8015 24.9611V26.1689H24.4346V27.2744H26.5385V28.4821H24.4346V29.797H26.8015V31.0048H22.9785V24.9563H26.8015V24.9611Z" fill="#007869"/>
<path d="M31.6911 24.9611V26.1689H29.3243V27.4156H31.4281V28.6234H29.3243V31.0096H27.8682V24.9611H31.6911Z" fill="#007869"/>
<path d="M34.0928 29.8019H36.4596V31.0096H32.6367V24.9611H34.0928V29.8019Z" fill="#007869"/>
<path d="M37.7158 31.1412L40.0145 24.7956H40.93L38.6314 31.1412H37.7158Z" fill="#007869"/>
<path d="M43.6466 31.0145H42.1904V24.966H43.6466V31.0145Z" fill="#007869"/>
<path d="M48.78 24.9611V26.1689H46.4132V27.2744H48.517V28.4821H46.4132V29.797H48.78V31.0048H44.957V24.9563H48.78V24.9611Z" fill="#007869"/>
<path d="M51.3028 29.8019H53.6696V31.0096H49.8467V24.9611H51.3028V29.8019Z" fill="#007869"/>
<path d="M57.9849 24.9611V26.1689H56.407V31.0096H54.9509V26.1689H53.373V24.9611H57.9849Z" fill="#007869"/>
<path d="M61.7098 26.6364C61.4711 26.2322 61.1741 26.0861 60.6335 26.0861C60.1514 26.0861 59.942 26.3052 59.942 26.6121C59.942 26.9724 60.2585 27.1721 61.0182 27.3913C62.3331 27.7662 62.8347 28.2581 62.8347 29.2954C62.8347 30.3912 62.0994 31.1022 60.7212 31.1022C59.6157 31.1022 58.8706 30.8295 58.3008 30.1136L59.3868 29.349C59.6838 29.724 60.054 29.8944 60.5994 29.8944C61.1448 29.8944 61.3786 29.6558 61.3786 29.3685C61.3786 29.0178 61.1351 28.8425 60.239 28.5552C59.0118 28.1607 58.4858 27.6007 58.4858 26.6267C58.4858 25.6527 59.1433 24.8832 60.6189 24.8832C61.5832 24.8832 62.3623 25.2095 62.7909 25.8718L61.7146 26.6413L61.7098 26.6364Z" fill="#007869"/>
</svg>
