<svg width="76" height="56" viewBox="0 0 76 56" fill="none" xmlns="http://www.w3.org/2000/svg">
<path d="M61.418 35.9284V39.9997C61.418 40.8812 60.9456 41.6945 60.1859 42.1377L39.0842 54.3224C38.3196 54.7656 37.3797 54.7656 36.6151 54.3224L15.5134 42.1377C14.7488 41.6945 14.2812 40.8812 14.2812 39.9997V15.6303C14.2812 14.7488 14.7536 13.9355 15.5134 13.4923L29.125 5.63215L32.8165 3.49909L36.6151 1.30759C37.3797 0.864417 38.3196 0.864417 39.0842 1.30759L60.1859 13.4923C60.9505 13.9355 61.418 14.7488 61.418 15.6303V35.9284Z" fill="white"/>
<path d="M37.8476 55.6227C37.2534 55.6227 36.6593 55.4717 36.1285 55.1649L15.0267 42.9802C13.9651 42.3666 13.3076 41.227 13.3076 39.9998V15.6303C13.3076 14.403 13.9651 13.2634 15.0267 12.6498L36.1236 0.460215C37.1852 -0.153405 38.505 -0.153405 39.5667 0.460215L60.6684 12.645C61.73 13.2586 62.3875 14.3982 62.3875 15.6254V39.9949C62.3875 41.2221 61.73 42.3617 60.6684 42.9753L39.5667 55.1601C39.0358 55.4669 38.4417 55.6178 37.8476 55.6178V55.6227ZM37.8476 1.95044C37.5895 1.95044 37.3313 2.01862 37.1025 2.15011L15.9959 14.3348C15.5332 14.6027 15.2507 15.0946 15.2507 15.6303V39.9998C15.2507 40.5306 15.5381 41.0273 15.9959 41.2952L37.0976 53.4799C37.5602 53.7478 38.13 53.7478 38.5927 53.4799L59.6944 41.2952C60.157 41.0273 60.4395 40.5355 60.4395 39.9998V15.6303C60.4395 15.0994 60.1522 14.6027 59.6944 14.3348L38.5927 2.15011C38.3638 2.01862 38.1057 1.95044 37.8476 1.95044Z" fill="#0C388D"/>
<path d="M56.2838 19.6967V18.1481C56.2838 17.5393 55.9576 16.9793 55.4316 16.6773L38.6934 7.01523C38.1674 6.71329 37.5197 6.71329 36.9938 7.01523L20.2556 16.6773C19.7296 16.9793 19.4033 17.5442 19.4033 18.1481V35.9284V37.4771C19.4033 38.0858 19.7296 38.6459 20.2556 38.9478L36.9938 48.6099C37.5197 48.9119 38.1674 48.9119 38.6934 48.6099L48.4967 42.951L52.1882 40.8179L55.4316 38.943C55.9576 38.641 56.2838 38.0761 56.2838 37.4722V19.6918V19.6967Z" fill="#0C388D"/>
<path d="M8.22597 28.4579H2.66442C1.69042 28.4579 1.04272 29.4611 1.44206 30.3474L3.23422 34.3506C3.39006 34.6964 3.39006 35.0957 3.23422 35.4463L1.44206 39.4495C1.04759 40.3358 1.69529 41.339 2.66442 41.339H8.09447H12.9304C13.6706 41.339 14.2696 40.74 14.2696 39.9998V35.9285" fill="white"/>
<path d="M12.931 42.313H2.66018C1.87124 42.313 1.1456 41.9185 0.717041 41.2562C0.288481 40.5939 0.225168 39.7709 0.546588 39.0501L2.33876 35.047C2.38259 34.9496 2.38259 34.8424 2.33876 34.7499L0.546588 30.7468C0.225168 30.026 0.288481 29.203 0.717041 28.5407C1.1456 27.8783 1.87124 27.4839 2.66018 27.4839H8.22171C8.75741 27.4839 9.19571 27.9222 9.19571 28.4579C9.19571 28.9936 8.75741 29.4319 8.22171 29.4319H2.66018C2.48486 29.4319 2.39233 29.5341 2.35337 29.5974C2.31441 29.6608 2.25597 29.7874 2.32415 29.9481L4.11631 33.9512C4.38416 34.5502 4.38416 35.2418 4.11631 35.8408L2.32901 39.8439C2.25596 39.9998 2.3144 40.1313 2.35823 40.1946C2.39719 40.2579 2.49459 40.3602 2.66504 40.3602H12.9359C13.1404 40.3602 13.3011 40.1946 13.3011 39.9949V35.9236C13.3011 35.3879 13.7394 34.9496 14.2751 34.9496C14.8108 34.9496 15.2491 35.3879 15.2491 35.9236V39.9949C15.2491 41.2708 14.2118 42.3082 12.9359 42.3082L12.931 42.313Z" fill="#0C388D"/>
<path d="M61.417 35.9284V39.9998C61.417 40.74 62.016 41.339 62.7562 41.339H73.0271C73.9962 41.339 74.6488 40.3358 74.2494 39.4495L72.4573 35.4463C72.3014 35.1005 72.3014 34.7012 72.4573 34.3506L74.2494 30.3474C74.6439 29.4611 73.9962 28.4579 73.0271 28.4579H67.4655" fill="white"/>
<path d="M73.0274 42.313H62.7566C61.4807 42.313 60.4434 41.2757 60.4434 39.9998V35.9284C60.4434 35.3927 60.8817 34.9544 61.4174 34.9544C61.9531 34.9544 62.3914 35.3927 62.3914 35.9284V39.9998C62.3914 40.2043 62.5569 40.365 62.7566 40.365H73.0274C73.2028 40.365 73.2953 40.2579 73.3343 40.1994C73.3732 40.1361 73.4316 40.0095 73.3586 39.8488L71.5664 35.8457C71.2986 35.2466 71.2986 34.5551 71.5664 33.9561L73.3586 29.953C73.4316 29.7922 73.3732 29.6656 73.3343 29.6023C73.2953 29.539 73.1979 29.4367 73.0274 29.4367H67.4659C66.9302 29.4367 66.4919 28.9984 66.4919 28.4627C66.4919 27.927 66.9302 27.4887 67.4659 27.4887H73.0274C73.8164 27.4887 74.542 27.8832 74.9706 28.5455C75.3991 29.2078 75.4624 30.0309 75.141 30.7516L73.3489 34.7548C73.305 34.8522 73.305 34.9593 73.3489 35.0567L75.141 39.0599C75.4624 39.7806 75.3991 40.6036 74.9706 41.2611C74.542 41.9234 73.8164 42.3179 73.0274 42.3179V42.313Z" fill="#0C388D"/>
<path d="M66.0383 35.9284H9.64859C8.85965 35.9284 8.22168 35.2904 8.22168 34.5015V21.1187C8.22168 20.3298 8.85965 19.6918 9.64859 19.6918H66.0383C66.8273 19.6918 67.4652 20.3298 67.4652 21.1187V34.5015C67.4652 35.2904 66.8273 35.9284 66.0383 35.9284Z" fill="white"/>
<path d="M66.0387 36.9024H9.64895C8.32431 36.9024 7.24805 35.8262 7.24805 34.5015V21.1188C7.24805 19.7941 8.32431 18.7178 9.64895 18.7178H66.0387C67.3633 18.7178 68.4396 19.7941 68.4396 21.1188V34.5015C68.4396 35.8262 67.3633 36.9024 66.0387 36.9024ZM9.64895 20.6707C9.40058 20.6707 9.19605 20.8753 9.19605 21.1236V34.5064C9.19605 34.7548 9.40058 34.9593 9.64895 34.9593H66.0387C66.2871 34.9593 66.4916 34.7548 66.4916 34.5064V21.1236C66.4916 20.8753 66.2871 20.6707 66.0387 20.6707H9.64895Z" fill="#0C388D"/>
<path d="M30.7164 24.9612V26.1689H29.1385V31.0097H27.6824V26.1689H26.1045V24.9612H30.7164Z" fill="#0C388D"/>
<path d="M33.8433 31.1022C32.4651 31.1022 31.457 30.2695 31.457 28.4627V27.5179C31.457 25.6917 32.4651 24.8784 33.8433 24.8784C35.2216 24.8784 36.2296 25.6917 36.2296 27.5179V28.4627C36.2296 30.2695 35.2216 31.1022 33.8433 31.1022ZM32.9132 28.4627C32.9132 29.4513 33.2395 29.8945 33.8433 29.8945C34.4472 29.8945 34.7735 29.4562 34.7735 28.4627V27.5179C34.7735 26.5293 34.4472 26.0861 33.8433 26.0861C33.2395 26.0861 32.9132 26.5244 32.9132 27.5179V28.4627Z" fill="#0C388D"/>
<path d="M40.8269 24.9612V26.1689H38.46V27.2744H40.5639V28.4822H38.46V29.7971H40.8269V31.0048H37.0039V24.9563H40.8269V24.9612Z" fill="#0C388D"/>
<path d="M43.4024 31.0146H41.9463V24.966H43.4024V31.0146Z" fill="#0C388D"/>
<path d="M47.805 26.8312C47.7417 26.4465 47.4787 26.0861 46.9625 26.0861C46.3586 26.0861 46.0323 26.5244 46.0323 27.5179V28.4627C46.0323 29.4075 46.3489 29.8945 46.9625 29.8945C47.4787 29.8945 47.7173 29.6315 47.805 29.1494H49.1881C48.9787 30.5081 48.2433 31.1071 46.9625 31.1071C45.5843 31.1071 44.5762 30.2743 44.5762 28.4676V27.5228C44.5762 25.6965 45.5843 24.8832 46.9625 24.8832C48.1654 24.8832 48.9884 25.5212 49.1881 26.841H47.805V26.8312Z" fill="#0C388D"/>
</svg>
