<svg width="75" height="56" viewBox="0 0 75 56" fill="none" xmlns="http://www.w3.org/2000/svg">
<path d="M61.0709 35.9311V40.0027C61.0709 40.8843 60.5985 41.6976 59.8387 42.1408L38.7354 54.3265C37.9708 54.7697 37.0308 54.7697 36.2662 54.3265L15.1629 42.1408C14.3982 41.6976 13.9307 40.8843 13.9307 40.0027V15.6314C13.9307 14.7499 14.4031 13.9365 15.1629 13.4933L28.7755 5.63257L32.4673 3.49935L36.2662 1.30768C37.0308 0.86448 37.9708 0.86448 38.7354 1.30768L59.8387 13.4933C60.6034 13.9365 61.0709 14.7499 61.0709 15.6314V35.9311Z" fill="white"/>
<path d="M37.4988 55.6269C36.9046 55.6269 36.3104 55.4759 35.7796 55.1691L14.6763 42.9834C13.6145 42.3697 12.957 41.2301 12.957 40.0028V15.6314C12.957 14.4041 13.6145 13.2644 14.6763 12.6508L35.7796 0.46025C36.8413 -0.153417 38.1612 -0.153417 39.2229 0.46025L60.3262 12.6459C61.3879 13.2596 62.0454 14.3992 62.0454 15.6266V39.9979C62.0454 41.2252 61.3879 42.3649 60.3262 42.9785L39.2229 55.1642C38.692 55.471 38.0979 55.622 37.5037 55.622L37.4988 55.6269ZM37.4988 1.95058C37.2407 1.95058 36.9825 2.01877 36.7536 2.15027L15.6455 14.3359C15.1828 14.6038 14.9003 15.0957 14.9003 15.6314V40.0028C14.9003 40.5336 15.1877 41.0304 15.6455 41.2983L36.7488 53.4839C37.2114 53.7518 37.7813 53.7518 38.244 53.4839L59.3473 41.2983C59.8099 41.0304 60.0924 40.5385 60.0924 40.0028V15.6314C60.0924 15.1006 59.8051 14.6038 59.3473 14.3359L38.244 2.15027C38.0151 2.01877 37.7569 1.95058 37.4988 1.95058Z" fill="#C45200"/>
<path d="M55.9399 19.6982V18.1494C55.9399 17.5406 55.6136 16.9805 55.0876 16.6786L38.3482 7.01578C37.8222 6.71382 37.1744 6.71382 36.6484 7.01578L19.909 16.6786C19.383 16.9805 19.0566 17.5455 19.0566 18.1494V35.9311V37.4799C19.0566 38.0887 19.383 38.6488 19.909 38.9508L36.6484 48.6136C37.1744 48.9155 37.8222 48.9155 38.3482 48.6136L48.1522 42.9542L51.8439 40.821L55.0876 38.9459C55.6136 38.6439 55.9399 38.079 55.9399 37.475V19.6933V19.6982Z" fill="#C45200"/>
<path d="M7.87786 28.46H2.3159C1.34183 28.46 0.694069 29.4633 1.09344 30.3497L2.88573 34.3531C3.04158 34.6989 3.04158 35.0983 2.88573 35.4489L1.09344 39.4524C0.698939 40.3388 1.3467 41.3421 2.3159 41.3421H7.74636H12.5826C13.3229 41.3421 13.922 40.743 13.922 40.0027V35.9311" fill="white"/>
<path d="M12.5833 42.3162H2.31659C1.52759 42.3162 0.801909 41.9217 0.373317 41.2593C-0.0552752 40.5969 -0.11859 39.7738 0.202854 39.053L1.99515 35.0496C2.03898 34.9522 2.03898 34.845 1.99515 34.7525L0.202854 30.7442C-0.11859 30.0233 -0.0552752 29.2003 0.373317 28.5379C0.801909 27.8755 1.52759 27.481 2.31659 27.481H7.87855C8.41429 27.481 8.85262 27.9194 8.85262 28.4551C8.85262 28.9908 8.41429 29.4292 7.87855 29.4292H2.31659C2.14126 29.4292 2.04872 29.5314 2.00976 29.5948C1.9708 29.6581 1.91235 29.7847 1.98054 29.9454L3.77283 33.9489C4.0407 34.5479 4.0407 35.2395 3.77283 35.8386L1.98541 39.842C1.91235 39.9979 1.9708 40.1294 2.01463 40.1927C2.05359 40.256 2.151 40.3583 2.32146 40.3583H12.5931C12.7976 40.3583 12.9583 40.1927 12.9583 39.993V35.9214C12.9583 35.3856 13.3967 34.9473 13.9324 34.9473C14.4682 34.9473 14.9065 35.3856 14.9065 35.9214V39.993C14.9065 41.269 13.8691 42.3064 12.5931 42.3064L12.5833 42.3162Z" fill="#C45200"/>
<path d="M61.0723 35.9311V40.0027C61.0723 40.743 61.6713 41.3421 62.4116 41.3421H72.6832C73.6524 41.3421 74.305 40.3388 73.9057 39.4524L72.1134 35.4489C71.9575 35.1031 71.9575 34.7038 72.1134 34.3531L73.9057 30.3497C74.3002 29.4633 73.6524 28.46 72.6832 28.46H67.1213" fill="white"/>
<path d="M72.6827 42.3162H62.4111C61.135 42.3162 60.0977 41.2788 60.0977 40.0028V35.9311C60.0977 35.3954 60.536 34.9571 61.0717 34.9571C61.6075 34.9571 62.0458 35.3954 62.0458 35.9311V40.0028C62.0458 40.2073 62.2114 40.368 62.4111 40.368H72.6827C72.858 40.368 72.9505 40.2609 72.9895 40.2024C73.0285 40.1391 73.0869 40.0125 73.0139 39.8518L71.2216 35.8483C70.9537 35.2493 70.9537 34.5577 71.2216 33.9586L73.0139 29.9552C73.0869 29.7945 73.0285 29.6678 72.9895 29.6045C72.9505 29.5412 72.8531 29.4389 72.6827 29.4389H67.1207C66.585 29.4389 66.1467 29.0006 66.1467 28.4649C66.1467 27.9291 66.585 27.4908 67.1207 27.4908H72.6827C73.4717 27.4908 74.1974 27.8853 74.626 28.5477C75.0545 29.21 75.1179 30.0331 74.7964 30.7539L73.0041 34.7574C72.9603 34.8548 72.9603 34.9619 73.0041 35.0593L74.7964 39.0628C75.1179 39.7836 75.0545 40.6067 74.626 41.2642C74.1974 41.9265 73.4717 42.321 72.6827 42.321V42.3162Z" fill="#C45200"/>
<path d="M65.6989 35.9311H9.30006C8.51106 35.9311 7.87305 35.2931 7.87305 34.5041V21.1203C7.87305 20.3313 8.51106 19.6933 9.30006 19.6933H65.694C66.483 19.6933 67.1211 20.3313 67.1211 21.1203V34.5041C67.1211 35.2931 66.483 35.9311 65.694 35.9311H65.6989Z" fill="white"/>
<path d="M65.6945 36.9052H9.3005C7.97577 36.9052 6.89941 35.8288 6.89941 34.5041V21.1203C6.89941 19.7956 7.97577 18.7192 9.3005 18.7192H65.6945C67.0192 18.7192 68.0956 19.7956 68.0956 21.1203V34.5041C68.0956 35.8288 67.0192 36.9052 65.6945 36.9052ZM9.3005 20.6723C9.05212 20.6723 8.84756 20.8768 8.84756 21.1252V34.509C8.84756 34.7574 9.05212 34.9619 9.3005 34.9619H65.6945C65.9429 34.9619 66.1474 34.7574 66.1474 34.509V21.1252C66.1474 20.8768 65.9429 20.6723 65.6945 20.6723H9.3005Z" fill="#C45200"/>
<path d="M19.7475 24.9631C21.1745 24.9631 22.0122 25.4647 22.0122 26.5654C22.0122 27.1888 21.7395 27.5492 21.3207 27.8268C21.871 28.0996 22.2071 28.5282 22.2071 29.2733C22.2071 30.2377 21.5593 31.0072 19.9423 31.0072H17.6338V24.9582H19.7475V24.9631ZM19.09 27.2716H19.7037C20.293 27.2716 20.556 27.0865 20.556 26.7359C20.556 26.3852 20.3709 26.166 19.5722 26.166H19.09V27.2716ZM19.09 29.8042H19.7816C20.4294 29.8042 20.746 29.585 20.746 29.137C20.746 28.6451 20.4148 28.4795 19.6745 28.4795H19.0852V29.8042H19.09Z" fill="#C45200"/>
<path d="M27.9497 24.9631V28.5671C27.9497 30.3546 26.9075 31.0997 25.5632 31.0997C24.219 31.0997 23.1768 30.3546 23.1768 28.572V24.9582H24.633V28.572C24.633 29.4584 24.896 29.887 25.5632 29.887C26.2305 29.887 26.4935 29.4584 26.4935 28.572V24.9582H27.9497V24.9631Z" fill="#C45200"/>
<path d="M32.0802 26.6385C31.8415 26.2342 31.5444 26.0881 31.0038 26.0881C30.5216 26.0881 30.3122 26.3073 30.3122 26.6141C30.3122 26.9745 30.6288 27.1742 31.3886 27.3934C32.7036 27.7684 33.2052 28.2603 33.2052 29.2977C33.2052 30.3935 32.4698 31.1046 31.0915 31.1046C29.9859 31.1046 29.2407 30.8318 28.6709 30.1159L29.757 29.3513C30.0541 29.7263 30.4242 29.8967 30.9697 29.8967C31.5152 29.8967 31.749 29.6581 31.749 29.3707C31.749 29.0201 31.5055 28.8447 30.6093 28.5574C29.382 28.1629 28.856 27.6028 28.856 26.6287C28.856 25.6546 29.5135 24.8851 30.9892 24.8851C31.9535 24.8851 32.7328 25.2114 33.1614 25.8738L32.085 26.6433L32.0802 26.6385Z" fill="#C45200"/>
<path d="M35.6975 31.017H34.2412V24.968H35.6975V31.017Z" fill="#C45200"/>
<path d="M41.7759 24.9631V31.0121H40.6021L38.3764 27.6613V31.0121H37.0078V24.9631H38.167L40.4122 28.3577V24.9631H41.7808H41.7759Z" fill="#C45200"/>
<path d="M46.8799 24.9631V26.1709H44.5129V27.2765H46.6169V28.4843H44.5129V29.7993H46.8799V31.0072H43.0566V24.9582H46.8799V24.9631Z" fill="#C45200"/>
<path d="M51.1231 26.6385C50.8845 26.2342 50.5874 26.0881 50.0468 26.0881C49.5646 26.0881 49.3552 26.3073 49.3552 26.6141C49.3552 26.9745 49.6718 27.1742 50.4315 27.3934C51.7465 27.7684 52.2482 28.2603 52.2482 29.2977C52.2482 30.3935 51.5128 31.1046 50.1344 31.1046C49.0289 31.1046 48.2837 30.8318 47.7139 30.1159L48.8 29.3513C49.097 29.7263 49.4672 29.8967 50.0127 29.8967C50.5582 29.8967 50.7919 29.6581 50.7919 29.3707C50.7919 29.0201 50.5484 28.8447 49.6523 28.5574C48.4249 28.1629 47.8989 27.6028 47.8989 26.6287C47.8989 25.6546 48.5564 24.8851 50.0322 24.8851C50.9965 24.8851 51.7758 25.2114 52.2043 25.8738L51.128 26.6433L51.1231 26.6385Z" fill="#C45200"/>
<path d="M56.2852 26.6385C56.0466 26.2342 55.7495 26.0881 55.2089 26.0881C54.7267 26.0881 54.5173 26.3073 54.5173 26.6141C54.5173 26.9745 54.8339 27.1742 55.5936 27.3934C56.9086 27.7684 57.4103 28.2603 57.4103 29.2977C57.4103 30.3935 56.6749 31.1046 55.2965 31.1046C54.191 31.1046 53.4458 30.8318 52.876 30.1159L53.9621 29.3513C54.2592 29.7263 54.6293 29.8967 55.1748 29.8967C55.7203 29.8967 55.954 29.6581 55.954 29.3707C55.954 29.0201 55.7105 28.8447 54.8144 28.5574C53.5871 28.1629 53.061 27.6028 53.061 26.6287C53.061 25.6546 53.7186 24.8851 55.1943 24.8851C56.1586 24.8851 56.9379 25.2114 57.3665 25.8738L56.2901 26.6433L56.2852 26.6385Z" fill="#C45200"/>
</svg>
