<svg width="75" height="56" viewBox="0 0 75 56" fill="none" xmlns="http://www.w3.org/2000/svg">
<path d="M61.0663 35.9269V39.998C61.0663 40.8795 60.594 41.6927 59.8343 42.1359L38.7335 54.3201C37.9689 54.7632 37.0291 54.7632 36.2645 54.3201L15.1637 42.1359C14.3991 41.6927 13.9316 40.8795 13.9316 39.998V15.6296C13.9316 14.7482 14.404 13.9349 15.1637 13.4918L28.7748 5.63193L32.4661 3.49896L36.2645 1.30755C37.0291 0.864401 37.9689 0.864401 38.7335 1.30755L59.8343 13.4918C60.5988 13.9349 61.0663 14.7482 61.0663 15.6296V35.9269Z" fill="white"/>
<path d="M37.4969 55.6203C36.9028 55.6203 36.3086 55.4693 35.7778 55.1625L14.677 42.9783C13.6154 42.3647 12.958 41.2252 12.958 39.998V15.6296C12.958 14.4024 13.6154 13.2629 14.677 12.6493L35.7778 0.460195C36.8395 -0.153398 38.1592 -0.153398 39.2208 0.460195L60.3216 12.6444C61.3832 13.258 62.0406 14.3975 62.0406 15.6247V39.9931C62.0406 41.2203 61.3832 42.3599 60.3216 42.9734L39.2208 55.1577C38.69 55.4645 38.0959 55.6154 37.5017 55.6154L37.4969 55.6203ZM37.4969 1.95035C37.2388 1.95035 36.9807 2.01853 36.7518 2.15001L15.651 14.3342C15.1884 14.6021 14.9059 15.0939 14.9059 15.6296V39.998C14.9059 40.5288 15.1932 41.0255 15.651 41.2934L36.7518 53.4776C37.2144 53.7454 37.7842 53.7454 38.2468 53.4776L59.3476 41.2934C59.8102 41.0255 60.0927 40.5337 60.0927 39.998V15.6296C60.0927 15.0988 59.8054 14.6021 59.3476 14.3342L38.2468 2.15001C38.0179 2.01853 37.7598 1.95035 37.5017 1.95035H37.4969Z" fill="#AE8800"/>
<path d="M55.9336 19.6959V18.1473C55.9336 17.5385 55.6073 16.9785 55.0814 16.6766L38.3439 7.01493C37.818 6.713 37.1703 6.713 36.6444 7.01493L19.9069 16.6766C19.381 16.9785 19.0547 17.5434 19.0547 18.1473V35.9269V37.4755C19.0547 38.0842 19.381 38.6442 19.9069 38.9461L36.6444 48.6078C37.1703 48.9097 37.818 48.9097 38.3439 48.6078L48.1468 42.9491L51.8381 40.8161L55.0814 38.9413C55.6073 38.6393 55.9336 38.0744 55.9336 37.4706V19.691V19.6959Z" fill="#AE8800"/>
<path d="M7.87801 28.4566H2.31672C1.34276 28.4566 0.695079 29.4598 1.0944 30.3461L2.88648 34.349C3.04231 34.6948 3.04231 35.0941 2.88648 35.4448L1.0944 39.4477C0.699948 40.334 1.34763 41.3372 2.31672 41.3372H7.74653H12.5822C13.3224 41.3372 13.9214 40.7382 13.9214 39.998V35.9269" fill="white"/>
<path d="M12.5828 42.3112H2.31241C1.52351 42.3112 0.797905 41.9167 0.369364 41.2544C-0.0591776 40.5921 -0.12248 39.7691 0.198926 39.0484L1.991 35.0454C2.03483 34.9529 2.03483 34.8409 1.991 34.7435L0.198926 30.7405C-0.12248 30.0198 -0.0591776 29.1968 0.369364 28.5345C0.797905 27.8722 1.52351 27.4778 2.31241 27.4778H7.87371C8.40939 27.4778 8.84767 27.9161 8.84767 28.4517C8.84767 28.9874 8.40939 29.4257 7.87371 29.4257H2.31241C2.1371 29.4257 2.04457 29.5328 2.00561 29.5913C1.96665 29.6546 1.90822 29.7812 1.9764 29.9419L3.76847 33.9449C4.03631 34.5438 4.03631 35.2354 3.76847 35.8343L1.9764 39.8373C1.90335 39.998 1.96178 40.1246 2.00561 40.1879C2.04457 40.2512 2.14197 40.3535 2.31241 40.3535H12.5828C12.7873 40.3535 12.948 40.1879 12.948 39.9883V35.9171C12.948 35.3815 13.3863 34.9432 13.922 34.9432C14.4577 34.9432 14.8959 35.3815 14.8959 35.9171V39.9883C14.8959 41.2642 13.8587 42.3014 12.5828 42.3014V42.3112Z" fill="#AE8800"/>
<path d="M61.0645 35.9269V39.998C61.0645 40.7382 61.6634 41.3372 62.4036 41.3372H72.674C73.6431 41.3372 74.2957 40.334 73.8963 39.4477L72.1043 35.4448C71.9484 35.099 71.9484 34.6997 72.1043 34.3491L73.8963 30.3461C74.2908 29.4598 73.6431 28.4566 72.674 28.4566H67.1127" fill="white"/>
<path d="M72.6744 42.3112H62.404C61.1281 42.3112 60.0908 41.2739 60.0908 39.998V35.9269C60.0908 35.3912 60.5291 34.9529 61.0648 34.9529C61.6005 34.9529 62.0387 35.3912 62.0387 35.9269V39.998C62.0387 40.2026 62.2043 40.3633 62.404 40.3633H72.6744C72.8497 40.3633 72.9422 40.2561 72.9812 40.1977C73.0201 40.1344 73.0785 40.0078 73.0055 39.8471L71.2183 35.8441C70.9505 35.2451 70.9505 34.5536 71.2183 33.9546L73.0055 29.9517C73.0785 29.791 73.0201 29.6643 72.9812 29.601C72.9422 29.5377 72.8448 29.4355 72.6744 29.4355H67.1131C66.5774 29.4355 66.1391 28.9972 66.1391 28.4615C66.1391 27.9258 66.5774 27.4875 67.1131 27.4875H72.6744C73.4633 27.4875 74.1889 27.882 74.6174 28.5443C75.0459 29.2066 75.1092 30.0296 74.7878 30.7503L73.0006 34.7533C72.9568 34.8507 72.9568 34.9578 73.0006 35.0503L74.7927 39.0582C75.1141 39.7789 75.0508 40.6019 74.6223 41.2593C74.1937 41.9216 73.4681 42.3161 72.6792 42.3161L72.6744 42.3112Z" fill="#AE8800"/>
<path d="M65.693 35.9269H9.30576C8.51685 35.9269 7.87891 35.2889 7.87891 34.5V21.1179C7.87891 20.329 8.51685 19.691 9.30576 19.691H65.693C66.4819 19.691 67.1199 20.329 67.1199 21.1179V34.5C67.1199 35.2889 66.4819 35.9269 65.693 35.9269Z" fill="white"/>
<path d="M65.6924 36.9008H9.30511C7.98053 36.9008 6.90918 35.8246 6.90918 34.5V21.1178C6.90918 19.7933 7.9854 18.717 9.30511 18.717H65.6924C67.017 18.717 68.0932 19.7933 68.0932 21.1178V34.5C68.0932 35.8246 67.017 36.9008 65.6924 36.9008ZM9.30511 20.6698C9.05676 20.6698 8.8571 20.8744 8.8571 21.1227V34.5049C8.8571 34.7533 9.06163 34.9578 9.30511 34.9578H65.6924C65.9408 34.9578 66.1453 34.7533 66.1453 34.5049V21.1276C66.1453 20.8792 65.9408 20.6747 65.6924 20.6747H9.30511V20.6698Z" fill="#AE8800"/>
<path d="M19.4055 24.9601C20.8323 24.9601 21.6699 25.4617 21.6699 26.5623C21.6699 27.1856 21.3972 27.546 20.9784 27.8235C21.5287 28.0962 21.8647 28.5248 21.8647 29.2699C21.8647 30.2341 21.217 31.0035 19.6003 31.0035H17.292V24.9552H19.4055V24.9601ZM18.7481 27.2684H19.3617C19.9509 27.2684 20.2139 27.0833 20.2139 26.7327C20.2139 26.3821 20.0288 26.1629 19.2302 26.1629H18.7481V27.2684ZM18.7481 29.8007H19.4396C20.0873 29.8007 20.4038 29.5815 20.4038 29.1335C20.4038 28.6417 20.0726 28.4761 19.3324 28.4761H18.7432V29.8007H18.7481Z" fill="#AE8800"/>
<path d="M26.7056 24.9601V26.1678H24.3389V27.2732H26.4426V28.481H24.3389V29.7958H26.7056V31.0035H22.8828V24.9552H26.7056V24.9601Z" fill="#AE8800"/>
<path d="M32.14 27.8138V28.4615C32.14 30.2682 31.2878 31.1009 29.9145 31.1009C28.5412 31.1009 27.5283 30.2682 27.5283 28.4615V27.6385C27.5283 25.6906 28.5364 24.8773 29.9145 24.8773C31.2927 24.8773 31.9647 25.6467 32.14 26.835H30.757C30.6937 26.46 30.4405 26.0899 29.9145 26.0899C29.3107 26.0899 28.9844 26.5282 28.9844 27.5216V28.4664C28.9844 29.4549 29.3107 29.8981 29.9145 29.8981C30.5184 29.8981 30.6937 29.528 30.7473 29.0312H29.9389V27.8235H32.14V27.8138Z" fill="#AE8800"/>
<path d="M34.7656 31.0132H33.3096V24.965H34.7656V31.0132Z" fill="#AE8800"/>
<path d="M40.8378 24.9601V31.0084H39.6642L37.4387 27.6579V31.0084H36.0703V24.9601H37.2293L39.4743 28.3543V24.9601H40.8427H40.8378Z" fill="#AE8800"/>
<path d="M46.8906 24.9601V31.0084H45.717L43.4915 27.6579V31.0084H42.123V24.9601H43.2821L45.527 28.3543V24.9601H46.8954H46.8906Z" fill="#AE8800"/>
<path d="M51.9888 24.9601V26.1678H49.6221V27.2732H51.7258V28.481H49.6221V29.7958H51.9888V31.0035H48.166V24.9552H51.9888V24.9601Z" fill="#AE8800"/>
<path d="M56.2795 31.0132L55.2714 28.7244H54.5166V31.0132H53.0605V24.965H55.3396C56.7324 24.965 57.6284 25.6029 57.6284 26.8691C57.6284 27.658 57.2778 28.1936 56.6642 28.4712L57.8719 31.0132H56.2746H56.2795ZM55.1643 27.5167C55.7535 27.5167 56.1723 27.4388 56.1723 26.8691C56.1723 26.2993 55.7535 26.1775 55.1643 26.1775H54.5166V27.5167H55.1643Z" fill="#AE8800"/>
</svg>
