<svg width="85" height="85" viewBox="0 0 85 85" fill="none" xmlns="http://www.w3.org/2000/svg">
<mask id="mask0_663_15756" style="mask-type:luminance" maskUnits="userSpaceOnUse" x="0" y="0" width="85" height="85">
<path d="M85 0H0V85H85V0Z" fill="white"/>
</mask>
<g mask="url(#mask0_663_15756)">
<path d="M11.8604 55.15C11.2904 55.15 10.7404 54.92 10.3404 54.52C9.94045 54.12 9.71045 53.57 9.71045 53V37.63C9.71045 37.06 9.94045 36.51 10.3404 36.11C10.7404 35.71 11.2904 35.48 11.8604 35.48C12.4304 35.48 12.9804 35.71 13.3804 36.11C13.7804 36.51 14.0104 37.06 14.0104 37.63V53C14.0104 53.57 13.7804 54.12 13.3804 54.52C12.9804 54.92 12.4304 55.15 11.8604 55.15Z" fill="#F39800"/>
<path d="M21.5703 20.84C19.5103 20.84 17.5003 20.23 15.7803 19.08C14.0603 17.93 12.7303 16.31 11.9403 14.4C11.1503 12.5 10.9503 10.4 11.3503 8.38C11.7503 6.36 12.7403 4.5 14.2003 3.05C15.6603 1.59 17.5103 0.600002 19.5303 0.200002C21.5503 -0.199998 23.6503 1.90735e-06 25.5503 0.790002C27.4503 1.58 29.0803 2.91 30.2303 4.63C31.3703 6.34 31.9903 8.36 31.9903 10.42C31.9903 13.18 30.8903 15.83 28.9403 17.78C26.9903 19.73 24.3403 20.83 21.5803 20.83L21.5703 20.84ZM21.5703 4.31C20.3603 4.31 19.1803 4.67 18.1803 5.34C17.1803 6.01 16.3903 6.97 15.9303 8.08C15.4703 9.2 15.3503 10.43 15.5803 11.61C15.8203 12.8 16.4003 13.88 17.2503 14.74C18.1003 15.59 19.1903 16.18 20.3803 16.41C21.5703 16.65 22.7903 16.52 23.9103 16.06C25.0303 15.6 25.9803 14.81 26.6503 13.81C27.3203 12.81 27.6803 11.62 27.6803 10.42C27.6803 8.8 27.0303 7.25 25.8903 6.1C24.7503 4.95 23.1903 4.31 21.5703 4.31Z" fill="#F39800"/>
<path d="M55.5303 36.95C55.1103 36.95 54.7103 36.83 54.3603 36.6C54.0103 36.37 53.7303 36.05 53.5603 35.67C53.3903 35.29 53.3303 34.87 53.4003 34.46C53.4603 34.05 53.6503 33.67 53.9203 33.36L65.6203 20.24C65.8103 20.03 66.0403 19.86 66.2903 19.73C66.5503 19.61 66.8203 19.54 67.1003 19.52C67.3803 19.5 67.6703 19.54 67.9303 19.64C68.2003 19.73 68.4403 19.88 68.6503 20.07C68.8603 20.26 69.0303 20.49 69.1603 20.74C69.2803 21 69.3503 21.27 69.3703 21.55C69.3903 21.83 69.3503 22.12 69.2503 22.38C69.1603 22.65 69.0103 22.89 68.8203 23.1L57.1203 36.21C56.9203 36.44 56.6703 36.62 56.3903 36.74C56.1103 36.86 55.8103 36.93 55.5103 36.93L55.5303 36.95Z" fill="#F39800"/>
<path d="M78.5404 56.4H39.8904C39.3204 56.4 38.7704 56.17 38.3704 55.77C37.9704 55.37 37.7404 54.82 37.7404 54.25C37.7404 53.68 37.9704 53.13 38.3704 52.73C38.7704 52.33 39.3204 52.1 39.8904 52.1H78.5404C79.1104 52.1 79.6604 51.87 80.0604 51.47C80.4604 51.07 80.6904 50.52 80.6904 49.95V6.51C80.6904 5.94 80.4604 5.39 80.0604 4.99C79.6604 4.59 79.1104 4.36 78.5404 4.36H36.2804C35.7104 4.36 35.1604 4.13 34.7604 3.73C34.3604 3.33 34.1304 2.78 34.1304 2.21C34.1304 1.64 34.3604 1.09 34.7604 0.690001C35.1604 0.290001 35.7104 0.0600014 36.2804 0.0600014H78.5404C80.2504 0.0600014 81.9004 0.740001 83.1104 1.95C84.3204 3.16 85.0004 4.81 85.0004 6.52V49.95C85.0004 51.66 84.3204 53.31 83.1104 54.52C81.9004 55.73 80.2504 56.41 78.5404 56.41V56.4Z" fill="#F39800"/>
<path d="M21.5704 85H11.8604C11.2904 85 10.7404 84.77 10.3404 84.37C9.94045 83.97 9.71045 83.42 9.71045 82.85V52.99C9.71045 52.42 9.94045 51.87 10.3404 51.47C10.7404 51.07 11.2904 50.84 11.8604 50.84C12.4304 50.84 12.9804 51.07 13.3804 51.47C13.7804 51.87 14.0104 52.42 14.0104 52.99V80.69H21.5604C22.1304 80.69 22.6804 80.92 23.0804 81.32C23.4804 81.72 23.7104 82.27 23.7104 82.84C23.7104 83.41 23.4804 83.96 23.0804 84.36C22.6804 84.76 22.1304 84.99 21.5604 84.99L21.5704 85Z" fill="#F39800"/>
<path d="M31.2702 85H21.5602C20.9902 85 20.4402 84.77 20.0402 84.37C19.6402 83.97 19.4102 83.42 19.4102 82.85V54.25C19.4102 53.68 19.6402 53.13 20.0402 52.73C20.4402 52.33 20.9902 52.1 21.5602 52.1C22.1302 52.1 22.6802 52.33 23.0802 52.73C23.4802 53.13 23.7102 53.68 23.7102 54.25V80.7H29.1102V39.98C29.1102 39.09 29.3702 38.21 29.8702 37.47C30.3702 36.73 31.0702 36.15 31.9002 35.81C32.7302 35.47 33.6302 35.38 34.5102 35.55C35.3902 35.72 36.1902 36.16 36.8202 36.79L40.2002 40.16C40.4502 40.41 40.7502 40.61 41.0802 40.75C41.4102 40.89 41.7602 40.95 42.1102 40.95H52.1302C52.4902 40.95 52.8502 40.88 53.1802 40.74C53.5102 40.6 53.8102 40.4 54.0602 40.14C54.3102 39.88 54.5102 39.58 54.6402 39.25C54.7702 38.92 54.8402 38.56 54.8302 38.2C54.8002 36.74 53.5502 35.56 52.0402 35.56H44.1102C43.5402 35.56 42.9902 35.33 42.5902 34.93L37.9502 30.29C37.1102 29.44 36.1102 28.77 35.0102 28.32C33.9102 27.86 32.7302 27.63 31.5302 27.63H29.8602L26.6002 30.34C25.1802 31.52 23.4002 32.16 21.5502 32.16C19.7002 32.16 17.9202 31.51 16.5002 30.34L13.2402 27.63H11.8402C9.84023 27.63 7.92023 28.43 6.50023 29.84C5.08023 31.26 4.29023 33.18 4.29023 35.18C4.29023 35.75 4.06023 36.3 3.66023 36.7C3.26023 37.1 2.71023 37.33 2.14023 37.33C1.57023 37.33 1.02023 37.1 0.620234 36.7C0.220234 36.3 -0.00976562 35.75 -0.00976562 35.18C-0.00976562 32.04 1.24023 29.02 3.47023 26.8C5.69023 24.58 8.71023 23.33 11.8502 23.32H14.0302C14.5302 23.32 15.0202 23.5 15.4102 23.82L19.2602 27.02C19.9102 27.56 20.7202 27.85 21.5602 27.85C22.4002 27.85 23.2102 27.56 23.8602 27.02L27.7102 23.81C28.1002 23.49 28.5802 23.31 29.0902 23.31H31.5402C33.3002 23.31 35.0402 23.65 36.6702 24.32C38.3002 24.99 39.7702 25.98 41.0102 27.23L45.0202 31.24H52.0602C55.9002 31.24 59.0802 34.32 59.1602 38.1C59.1802 39.03 59.0102 39.96 58.6702 40.83C58.3302 41.7 57.8102 42.49 57.1602 43.15C56.5102 43.82 55.7302 44.34 54.8702 44.71C54.0102 45.07 53.0902 45.26 52.1602 45.26H42.1202C41.2002 45.26 40.2902 45.08 39.4402 44.73C38.5902 44.38 37.8202 43.86 37.1702 43.21L33.8002 39.84C33.8002 39.84 33.7402 39.79 33.7002 39.78C33.6602 39.78 33.6202 39.78 33.5902 39.78C33.5502 39.79 33.5102 39.82 33.4902 39.86C33.4602 39.9 33.4502 39.94 33.4502 39.98V82.86C33.4502 83.14 33.4002 83.42 33.2902 83.69C33.1802 83.95 33.0202 84.19 32.8202 84.39C32.6202 84.59 32.3802 84.75 32.1202 84.86C31.8602 84.97 31.5802 85.02 31.2902 85.02L31.2702 85Z" fill="#F39800"/>
<path d="M7.01 60C5.15 60 3.37 59.26 2.06 57.95C0.74 56.63 0 54.85 0 52.99V35.16C0 34.59 0.23 34.04 0.63 33.64C1.03 33.24 1.58 33.01 2.15 33.01C2.72 33.01 3.27 33.24 3.67 33.64C4.07 34.04 4.3 34.59 4.3 35.16V52.99C4.3 53.71 4.58 54.39 5.09 54.9C5.6 55.41 6.28 55.69 7 55.69C7.72 55.69 8.4 55.41 8.91 54.9C9.42 54.39 9.7 53.71 9.7 52.99C9.7 52.42 9.93 51.87 10.33 51.47C10.73 51.07 11.28 50.84 11.85 50.84C12.42 50.84 12.97 51.07 13.37 51.47C13.77 51.87 14 52.42 14 52.99C14 54.85 13.26 56.63 11.95 57.94C10.64 59.25 8.85 59.99 7 59.99L7.01 60Z" fill="#F39800"/>
<path d="M67.7803 85H2.16025C1.59025 85 1.04025 84.77 0.640254 84.37C0.240254 83.97 0.0102539 83.42 0.0102539 82.85C0.0102539 82.28 0.240254 81.73 0.640254 81.33C1.04025 80.93 1.59025 80.7 2.16025 80.7H67.7903C68.3603 80.7 68.9102 80.93 69.3102 81.33C69.7103 81.73 69.9403 82.28 69.9403 82.85C69.9403 83.42 69.7103 83.97 69.3102 84.37C68.9102 84.77 68.3603 85 67.7903 85H67.7803Z" fill="#F39800"/>
<path d="M56.07 23.83H44.9C44.33 23.83 43.78 23.6 43.38 23.2C42.98 22.8 42.75 22.25 42.75 21.68C42.75 21.11 42.98 20.56 43.38 20.16C43.78 19.76 44.33 19.53 44.9 19.53H56.07C56.64 19.53 57.19 19.76 57.59 20.16C57.99 20.56 58.22 21.11 58.22 21.68C58.22 22.25 57.99 22.8 57.59 23.2C57.19 23.6 56.64 23.83 56.07 23.83Z" fill="#F39800"/>
<path d="M67.2302 14.09H44.8902C44.3202 14.09 43.7702 13.86 43.3702 13.46C42.9702 13.06 42.7402 12.51 42.7402 11.94C42.7402 11.37 42.9702 10.82 43.3702 10.42C43.7702 10.02 44.3202 9.79 44.8902 9.79H67.2302C67.8002 9.79 68.3502 10.02 68.7502 10.42C69.1502 10.82 69.3802 11.37 69.3802 11.94C69.3802 12.51 69.1502 13.06 68.7502 13.46C68.3502 13.86 67.8002 14.09 67.2302 14.09Z" fill="#F39800"/>
</g>
</svg>
