<svg width="85" height="85" viewBox="0 0 85 85" fill="none" xmlns="http://www.w3.org/2000/svg">
<mask id="mask0_663_15771" style="mask-type:luminance" maskUnits="userSpaceOnUse" x="0" y="0" width="85" height="85">
<path d="M85 0H0V85H85V0Z" fill="white"/>
</mask>
<g mask="url(#mask0_663_15771)">
<path d="M37.3102 85C36.7302 85 36.1902 84.78 35.7802 84.37C32.9502 81.54 29.1802 79.98 25.1802 79.98H2.15024C0.960238 79.98 -0.00976562 79.01 -0.00976562 77.82V22.24C-0.00976562 21.05 0.960238 20.08 2.15024 20.08H12.1902C13.3802 20.08 14.3502 21.05 14.3502 22.24C14.3502 23.43 13.3802 24.4 12.1902 24.4H4.30023V75.66H25.1702C29.9802 75.66 34.5802 77.43 38.1302 80.66L46.7702 80.69C50.3902 77.44 54.9902 75.67 59.8002 75.67H80.6702V29.42H72.7802C71.5902 29.42 70.6202 28.45 70.6202 27.26C70.6202 26.07 71.5902 25.1 72.7802 25.1H82.8202C84.0102 25.1 84.9802 26.07 84.9802 27.26V77.81C84.9802 79 84.0102 79.97 82.8202 79.97H59.7902C55.7902 79.97 52.0202 81.53 49.1902 84.36C48.7902 84.76 48.2302 84.99 47.6602 84.99H37.2802L37.3102 85Z" fill="#F39800"/>
<path d="M40.9303 74.96C40.4803 74.96 40.0503 74.82 39.6803 74.56C35.4503 71.54 30.4503 69.94 25.2203 69.94H12.2103C11.0203 69.94 10.0503 68.97 10.0503 67.78V12.2C10.0503 11.01 11.0203 10.04 12.2103 10.04H22.2503C23.4403 10.04 24.4103 11.01 24.4103 12.2C24.4103 13.39 23.4403 14.36 22.2503 14.36H14.3603V65.62H25.2103C31.0903 65.62 36.7503 67.35 41.5803 70.62L43.3703 70.64C48.2603 67.35 53.9203 65.62 59.8003 65.62H70.6503V19.38H59.8003C54.5703 19.38 49.5703 20.98 45.3303 24C44.9603 24.26 44.5303 24.4 44.0803 24.4H42.5103C41.3203 24.4 40.3503 23.43 40.3503 22.24C40.3503 21.05 41.3203 20.08 42.5103 20.08H43.3803C48.2703 16.79 53.9303 15.06 59.8103 15.06H72.8203C74.0103 15.06 74.9803 16.03 74.9803 17.22V67.77C74.9803 68.96 74.0103 69.93 72.8203 69.93H59.8103C54.5803 69.93 49.5803 71.53 45.3403 74.55C44.9703 74.81 44.5403 74.95 44.0903 74.95H40.9403L40.9303 74.96Z" fill="#F39800"/>
<path d="M42.5001 74.96C41.3101 74.96 40.3401 73.99 40.3401 72.8C40.3401 62.91 32.2201 54.87 22.2401 54.87C21.0501 54.87 20.0801 53.9 20.0801 52.71V2.16C20.0901 0.97 21.0501 0 22.2401 0C34.6001 0 44.6501 9.98 44.6501 22.24V72.79C44.6501 73.98 43.6801 74.95 42.4901 74.95L42.5001 74.96ZM24.4001 50.66H24.4901C30.6801 51.28 36.3901 54.49 40.1601 59.46L40.3401 59.7V22.24C40.3401 13.22 33.5301 5.57 24.5101 4.45H24.4001V50.65V50.66Z" fill="#F39800"/>
</g>
</svg>
